<?xml version="1.0" encoding="utf-8"?>
<!-- Generator: Adobe Illustrator 23.0.1, SVG Export Plug-In . SVG Version: 6.00 Build 0)  -->
<svg version="1.1" id="Layer_1" xmlns="http://www.w3.org/2000/svg" xmlns:xlink="http://www.w3.org/1999/xlink" x="0px" y="0px"
	 viewBox="0 0 203 201" style="enable-background:new 0 0 203 201;" xml:space="preserve">
<style type="text/css">
	.st0{fill:#FF999D;}
	.st1{fill:#FF0002;}
	.st2{fill:#FFE6E7;}
	.st3{clip-path:url(#SVGID_2_);}
	.st4{fill:#FFE6E7;stroke:#FF0002;stroke-width:2;stroke-linecap:round;stroke-linejoin:round;stroke-miterlimit:10;}
	.st5{fill:#FF999D;stroke:#FF0002;stroke-width:2;stroke-linecap:round;stroke-linejoin:round;stroke-miterlimit:10;}
	.st6{fill:none;stroke:#FF0002;stroke-width:2;stroke-linecap:round;stroke-linejoin:round;stroke-miterlimit:10;}
	.st7{fill:#FFFFFF;stroke:#FF0002;stroke-width:2;stroke-linecap:round;stroke-linejoin:round;stroke-miterlimit:10;}
	.st8{fill:#FF0002;stroke:#FF0002;stroke-width:2;stroke-linecap:round;stroke-linejoin:round;stroke-miterlimit:10;}
	.st9{clip-path:url(#SVGID_4_);}
</style>
<g>
	<path class="st0" d="M200.7,165.5c-0.2,0-0.4-0.1-0.6-0.2l-10.8-7.6c-0.3-0.2-0.4-0.5-0.4-0.8V94c0-0.3,0.1-33.8,6.4-33.8
		c6.3,0,6.4,33.5,6.4,33.8v70.5c0,0.4-0.2,0.7-0.5,0.9C201,165.4,200.8,165.5,200.7,165.5z"/>
	<path class="st1" d="M195.3,61.2c3,0,5.4,14.7,5.4,32.8v70.5l-10.8-7.6V94C189.9,75.9,192.3,61.2,195.3,61.2 M195.3,59.2
		c-2.8,0-4.5,3.4-5.8,11.3c-1,6.3-1.6,14.7-1.6,23.5v62.9c0,0.6,0.3,1.3,0.8,1.6l10.8,7.6c0.3,0.2,0.7,0.4,1.2,0.4
		c0.3,0,0.6-0.1,0.9-0.2c0.7-0.3,1.1-1,1.1-1.8V94c0-8.9-0.6-17.2-1.6-23.5C199.8,62.6,198,59.2,195.3,59.2L195.3,59.2z"/>
</g>
<g>
	<path class="st2" d="M101.7,68.1c-49.1,0-89,39.7-89.2,88.7h178.4C190.6,107.8,150.8,68.1,101.7,68.1z"/>
</g>
<g>
	<path class="st0" d="M2.5,165.5c-0.2,0-0.3,0-0.5-0.1c-0.3-0.2-0.5-0.5-0.5-0.9V94c0-0.3,0.1-33.8,6.4-33.8s6.4,33.5,6.4,33.8v62.9
		c0,0.3-0.2,0.6-0.4,0.8l-10.8,7.6C2.9,165.4,2.7,165.5,2.5,165.5z"/>
	<path class="st1" d="M7.9,61.2c3,0,5.4,14.7,5.4,32.8v62.9l-10.8,7.6V94C2.5,75.9,4.9,61.2,7.9,61.2 M7.9,59.2
		c-2.8,0-4.5,3.4-5.8,11.3c-1,6.3-1.6,14.7-1.6,23.5v70.5c0,0.7,0.4,1.4,1.1,1.8c0.3,0.2,0.6,0.2,0.9,0.2c0.4,0,0.8-0.1,1.2-0.4
		l10.8-7.6c0.5-0.4,0.8-1,0.8-1.6V94c0-8.9-0.6-17.2-1.6-23.5C12.4,62.6,10.6,59.2,7.9,59.2L7.9,59.2z"/>
</g>
<g>
	<defs>
		<path id="SVGID_1_" d="M2.5,164.5V94c0-18.1,2.4-32.8,5.4-32.8s35,3.4,35,21.5l-3.5,74.1"/>
	</defs>
	<clipPath id="SVGID_2_">
		<use xlink:href="#SVGID_1_"  style="overflow:visible;"/>
	</clipPath>
	<g class="st3">
		<path class="st4" d="M20.6,75.3H0c-5.2,0-9.5,4.3-9.5,9.5v5.1c0,5.2,4.3,9.5,9.5,9.5h20.6c5.2,0,9.5-4.3,9.5-9.5v-5.1
			C30.1,79.5,25.8,75.3,20.6,75.3z"/>
		<path class="st4" d="M18.1,99.3H2.6c-6.6,0-12,5.4-12,12v33.3c0,6.6,5.4,12,12,12h15.5c6.6,0,12-5.4,12-12v-33.3
			C30.1,104.7,24.7,99.3,18.1,99.3z"/>
		<path class="st5" d="M17.8,150.5H2.9c-4,0-7.3-3.3-7.3-7.3v-14.9c0-4,3.3-7.3,7.3-7.3h14.9c4,0,7.3,3.3,7.3,7.3v14.9
			C25.1,147.2,21.8,150.5,17.8,150.5z"/>
		<line class="st6" x1="-4.4" y1="128.3" x2="25.1" y2="128.3"/>
		<g>
			<rect x="-0.2" y="75.3" class="st5" width="4.6" height="41.5"/>
			<rect x="16.3" y="75.3" class="st5" width="4.6" height="41.5"/>
		</g>
		<line class="st6" x1="-0.2" y1="101.8" x2="4.4" y2="101.8"/>
		<line class="st6" x1="16.3" y1="101.8" x2="20.9" y2="101.8"/>
		<line class="st6" x1="-0.2" y1="107" x2="4.4" y2="107"/>
		<line class="st6" x1="16.3" y1="107" x2="20.9" y2="107"/>
		<g>
			<path class="st5" d="M32.1,126.1h-2v19.3h2c2.6,0,4.8-2.1,4.8-4.8v-9.8C36.9,128.2,34.7,126.1,32.1,126.1z"/>
		</g>
		<g>
			<path class="st5" d="M-11.4,126.1h2v19.3h-2c-2.6,0-4.8-2.1-4.8-4.8v-9.8C-16.2,128.2-14.1,126.1-11.4,126.1z"/>
		</g>
	</g>
</g>
<g>
	<path class="st7" d="M49.9,151.5H78c3.9,0,7-3.2,7-7v-45c0-3.9-3.2-7-7-7H49.9c-3.9,0-7,3.2-7,7v45C42.9,148.4,46,151.5,49.9,151.5
		z"/>
	<g>
		<path class="st7" d="M74,91.5c0-2.8-2.3-5-5-5H58.9c-2.8,0-5,2.3-5,5v0.9H74V91.5z"/>
	</g>
	<g>
		<path class="st5" d="M55,156.5c2.8,0,5-2.2,5-5H50C50,154.3,52.2,156.5,55,156.5z"/>
	</g>
	<g>
		<path class="st5" d="M73,156.5c2.8,0,5-2.2,5-5H68C68,154.3,70.2,156.5,73,156.5z"/>
	</g>
	<g>
		<polygon class="st5" points="54,112.1 47,112.1 47,100.2 50.5,96.7 54,100.2 		"/>
		<line class="st6" x1="50.5" y1="100.2" x2="50.5" y2="92.5"/>
	</g>
</g>
<g>
	<path class="st7" d="M153.9,150.1h-14.2c-6.6,0-12-5.4-12-12v-37.8c0-6.6,5.4-12,12-12h14.2c6.6,0,12,5.4,12,12v37.8
		C165.9,144.7,160.5,150.1,153.9,150.1z"/>
	<g>
		<path class="st5" d="M156.2,88.3v7c0,1.5,1.2,2.7,2.7,2.7h7C165.8,92.7,161.5,88.4,156.2,88.3z"/>
		<path class="st5" d="M137.4,88.3c-5.3,0.1-9.6,4.4-9.7,9.7h7c1.5,0,2.6-1.2,2.6-2.6V88.3z"/>
		<path class="st5" d="M156.2,150.1c5.3-0.1,9.6-4.4,9.7-9.7h-7.1c-1.4,0-2.6,1.2-2.6,2.6V150.1z"/>
		<path class="st5" d="M127.7,140.4c0.1,5.3,4.4,9.6,9.7,9.7v-7c0-1.5-1.2-2.7-2.7-2.7H127.7z"/>
	</g>
	<line class="st6" x1="146.8" y1="105.3" x2="146.8" y2="133.1"/>
	<line class="st6" x1="156.2" y1="105.3" x2="156.2" y2="133.1"/>
	<line class="st6" x1="137.4" y1="105.3" x2="137.4" y2="133.1"/>
	<g>
		<path class="st5" d="M154.1,75.7c0-2-1.7-3.7-3.7-3.7h-7.2c-2,0-3.7,1.7-3.7,3.7v1.9h14.6V75.7z"/>
	</g>
	<line class="st6" x1="139.5" y1="77.6" x2="139.5" y2="87.9"/>
	<line class="st6" x1="154.1" y1="77.6" x2="154.1" y2="87.9"/>
	<path class="st5" d="M135.8,150.8v3c0,1.7,1.4,3,3,3s3-1.4,3-3v-3H135.8z"/>
	<path class="st5" d="M151,150.8v3c0,1.7,1.4,3,3,3s3-1.4,3-3v-3H151z"/>
</g>
<g>
	<path class="st4" d="M117.8,42.7H85.6c-1.3,0-2.4-1.1-2.4-2.4V8.2c0-1.3,1.1-2.4,2.4-2.4h32.2c1.3,0,2.4,1.1,2.4,2.4v32.2
		C120.2,41.6,119.1,42.7,117.8,42.7z"/>
	<g>
		<path class="st8" d="M110.4,23.5c-0.8-2.5-2.1-3.5-4-3.5h-4.1h-1.1H97c-1.9,0-3.2,1-4,3.5l-1.2,7c0,0.8,0.6,1.4,1.4,1.4h8h1.1h8
			c0.8,0,1.4-0.6,1.4-1.4L110.4,23.5z"/>
		<path class="st6" d="M97.5,20.1c0-1,0.8-3.5,1.7-3.5h4.9c1,0,1.7,2.5,1.7,3.5"/>
	</g>
	<line class="st6" x1="91.8" y1="5.7" x2="91.8" y2="1.1"/>
	<line class="st6" x1="111.6" y1="5.7" x2="111.6" y2="1.1"/>
</g>
<g>
	<path class="st7" d="M112.4,117.4c0-3.5-2.8-6.3-6.3-6.3s-6.3,2.8-6.3,6.3c0,0-4.6,17.5-4.6,26.7c0,9.2,6,10.9,10.9,10.9
		s10.9-1.7,10.9-10.9C117,136.5,112.4,117.4,112.4,117.4z"/>
	<line class="st6" x1="97.2" y1="155" x2="115" y2="155"/>
	<path class="st5" d="M103,106.4c-3.8,0-6.8,3-6.8,6.8l-1,8l7.8-1.3c3.8,0,6.8-3,6.8-6.8C109.8,109.4,106.8,106.4,103,106.4z"/>
	<circle class="st7" cx="102.7" cy="113.2" r="2.2"/>
	<line class="st6" x1="103.6" y1="85.2" x2="103.6" y2="93.8"/>
	<circle class="st6" cx="103.6" cy="98.6" r="1.5"/>
	<path class="st5" d="M98.1,124.5c-0.9,14.8,9.5,19.5-0.9,26.8C97.2,151.4,87.6,148.3,98.1,124.5z"/>
	<path class="st5" d="M114.1,124.5c0.9,14.8-9.5,19.5,0.9,26.8C115,151.4,124.6,148.3,114.1,124.5z"/>
</g>
<g>
	<defs>
		<path id="SVGID_3_" d="M200.7,164.5V94c0-18.1-2.4-32.8-5.4-32.8s-26.9,7.2-26.9,25.3V157L200.7,164.5z"/>
	</defs>
	<clipPath id="SVGID_4_">
		<use xlink:href="#SVGID_3_"  style="overflow:visible;"/>
	</clipPath>
	<g class="st9">
		<path class="st5" d="M198.2,150.1h-14.2c-6.6,0-12-5.4-12-12v-27.8c0-6.6,5.4-12,12-12h14.2c6.6,0,12,5.4,12,12v27.8
			C210.2,144.7,204.8,150.1,198.2,150.1z"/>
		<g>
			<path class="st7" d="M200.5,98.3v7c0,1.5,1.2,2.7,2.7,2.7h7C210.1,102.7,205.8,98.4,200.5,98.3z"/>
			<path class="st7" d="M181.6,98.3c-5.3,0.1-9.6,4.4-9.7,9.7h7c1.5,0,2.6-1.2,2.6-2.6V98.3z"/>
			<path class="st7" d="M200.5,150.1c5.3-0.1,9.6-4.4,9.7-9.7h-7.1c-1.4,0-2.6,1.2-2.6,2.6V150.1z"/>
			<path class="st7" d="M171.9,140.4c0.1,5.3,4.4,9.6,9.7,9.7v-7c0-1.5-1.2-2.7-2.7-2.7H171.9z"/>
		</g>
		<line class="st6" x1="191" y1="115.3" x2="191" y2="133.1"/>
		<line class="st6" x1="200.5" y1="115.3" x2="200.5" y2="133.1"/>
		<line class="st6" x1="181.6" y1="115.3" x2="181.6" y2="133.1"/>
		<g>
			<path class="st7" d="M198.3,90.7c0-2-1.7-3.7-3.7-3.7h-7.2c-2,0-3.7,1.7-3.7,3.7v1.9h14.6V90.7z"/>
		</g>
		<line class="st6" x1="183.7" y1="92.6" x2="183.7" y2="97.9"/>
		<line class="st6" x1="198.3" y1="92.6" x2="198.3" y2="97.9"/>
		<path class="st7" d="M180,150.8v3c0,1.7,1.4,3,3,3s3-1.4,3-3v-3H180z"/>
		<path class="st7" d="M195.3,150.8v3c0,1.7,1.4,3,3,3s3-1.4,3-3v-3H195.3z"/>
	</g>
</g>
<g>
	<rect x="1.5" y="164.5" class="st4" width="200" height="26"/>
	<rect x="1.5" y="157" class="st5" width="200" height="7.6"/>
	<rect x="6.7" y="190.5" class="st5" width="189.6" height="9.3"/>
	<g>
		<line class="st6" x1="1.5" y1="157" x2="1.5" y2="164.6"/>
		<line class="st6" x1="30" y1="157" x2="30" y2="164.6"/>
		<line class="st6" x1="58.6" y1="157" x2="58.6" y2="164.6"/>
		<line class="st6" x1="87.2" y1="157" x2="87.2" y2="164.6"/>
		<line class="st6" x1="115.8" y1="157" x2="115.8" y2="164.6"/>
		<line class="st6" x1="144.3" y1="157" x2="144.3" y2="164.6"/>
		<line class="st6" x1="172.9" y1="164.6" x2="172.9" y2="157"/>
		<line class="st6" x1="201.5" y1="157" x2="201.5" y2="164.6"/>
	</g>
</g>
</svg>
