<?xml version="1.0" encoding="UTF-8"?>
<svg width="29px" height="36px" viewBox="0 0 29 36" version="1.1" xmlns="http://www.w3.org/2000/svg" xmlns:xlink="http://www.w3.org/1999/xlink">
    <!-- Generator: Sketch 47.1 (45422) - http://www.bohemiancoding.com/sketch -->
    <title>AviancaMinimalLogo</title>
    <desc>Created with Sketch.</desc>
    <defs></defs>
    <g id="VD-FullScreenMenu" stroke="none" stroke-width="1" fill="none" fill-rule="evenodd">
        <g id="1.2.0-HeaderWhiteMobile-Default-v01A" transform="translate(-16.000000, -16.000000)" fill="#ffffff">
            <g id="Logo" transform="translate(16.000000, 16.000000)">
                <path d="M2.78632183,0 C2.78632183,0 5.14180045,13.8953073 12,25 C12,25 4.03983556,24.6556339 1.25231987,17.2990454 C-1.30959285,10.5384066 0.492609609,3.62431974 2.78632183,0" id="Fill-4"></path>
                <path d="M18.4056855,28 C21.3345912,31.3455911 24.8376184,34.1831265 29,35.9263367 C29,35.9263367 23.4192872,36.4834153 20.0524109,34.5336403 C16.6855346,32.5838653 13.1802935,29.2971017 11.0125786,29.0742703 C8.84486373,28.8514389 7.57744235,28.7065985 7,28 L18.4056855,28" id="Fill-5"></path>
                <path d="M23,28 C21.7962833,25.098447 16,25 16,25 C16,25 17.5704626,26.7661197 18.5848489,27.7721561 C18.5848489,27.7721561 22.122715,27.6707458 23,28" id="Fill-6"></path>
            </g>
        </g>
    </g>
</svg>