<svg id="AMEX" xmlns="http://www.w3.org/2000/svg" width="45" height="32" viewBox="0 0 45 32">
  <path id="Path_4223" data-name="Path 4223" d="M41,32H4a4.012,4.012,0,0,1-4-4V4A4.012,4.012,0,0,1,4,0H41a4.012,4.012,0,0,1,4,4V28A4.012,4.012,0,0,1,41,32Z" fill="#1976d2"/>
  <path id="Path_4224" data-name="Path 4224" d="M7.4,12.3h2.7l3.1,7.044V12.3h3l2.4,5.032,2.2-5.032h3v7.447h-1.8V13.91l-2.7,5.837h-1.6l-2.7-5.837v5.837H11.29l-.6-1.711H6.9l-.7,1.711h-2C4.1,19.747,7.4,12.3,7.4,12.3Zm19.172,0h7.389l2.3,2.415,2.3-2.415h2.3l-3.495,3.724,3.4,3.724h-2.4l-2.3-2.415-2.4,2.415h-7.29l.2-7.447ZM8.793,13.608,7.5,16.627h2.5Zm19.572.2v1.308h3.994v1.51H28.365v1.51h4.494l2.1-2.214-2-2.214-4.593.1Z" transform="translate(0.027 -0.024)" fill="#fff"/>
</svg>
