<svg id="DINERS" xmlns="http://www.w3.org/2000/svg" width="50" height="32" viewBox="0 0 50 32">
  <g id="Group_3062" data-name="Group 3062">
    <g id="Group_3061" data-name="Group 3061">
      <g id="Group_3060" data-name="Group 3060">
        <g id="Group_3059" data-name="Group 3059">
          <g id="Group_3058" data-name="Group 3058">
            <g id="Group_3057" data-name="Group 3057">
              <path id="Path_4194" data-name="Path 4194" d="M5.625,0h38.75A5.82,5.82,0,0,1,50,6.108V25.892A5.822,5.822,0,0,1,44.375,32H5.625A6.026,6.026,0,0,1,0,25.759V6.108C0,2.656,2.375,0,5.625,0Z"/>
            </g>
          </g>
        </g>
      </g>
    </g>
  </g>
  <g id="Group_3066" data-name="Group 3066" transform="translate(3.517 10.285)">
    <g id="Group_3063" data-name="Group 3063">
      <path id="Path_4195" data-name="Path 4195" d="M11.09,18.93a5.847,5.847,0,0,0,5.9-5.652A5.789,5.789,0,0,0,11.09,7.5H8.452A5.582,5.582,0,0,0,2.8,13.278,5.71,5.71,0,0,0,8.452,18.93H11.09" transform="translate(-2.8 -7.5)" fill="#006095"/>
      <path id="Path_4196" data-name="Path 4196" d="M9.506,16.215V9.935a3.3,3.3,0,0,1,2.135,3.14,3.423,3.423,0,0,1-2.135,3.14m-4.4-3.14a3.423,3.423,0,0,1,2.135-3.14V16.09A3.133,3.133,0,0,1,5.11,13.075M8.375,7.8A5.307,5.307,0,0,0,3.1,13.075a5.2,5.2,0,0,0,5.15,5.275,5.2,5.2,0,0,0,5.15-5.275A5.02,5.02,0,0,0,8.375,7.8" transform="translate(-2.723 -7.423)" fill="#fff"/>
    </g>
    <g id="Group_3065" data-name="Group 3065" transform="translate(15.208 1.392)">
      <path id="Path_4197" data-name="Path 4197" d="M15.494,12.877c.226-.126.163-.452.163-.452V9.535c-.013-.327-.113-.352-.113-.352-.025-.1-.414-.126-.414-.126V8.92h1.859a2.152,2.152,0,0,1,2.273,2.085,2.168,2.168,0,0,1-2.3,2.085H15.13v-.151C15.444,12.939,15.494,12.877,15.494,12.877Zm.766-3.73v3.278a.444.444,0,0,0,.452.49s1.922.226,1.884-2.022a1.8,1.8,0,0,0-1.043-1.62A2.468,2.468,0,0,0,16.26,9.146Z" transform="translate(-15.092 -8.528)" fill="#fff"/>
      <path id="Path_4198" data-name="Path 4198" d="M19.438,9.159a.289.289,0,1,0-.289.289A.284.284,0,0,0,19.438,9.159Z" transform="translate(-14.137 -8.541)" fill="#fff"/>
      <path id="Path_4199" data-name="Path 4199" d="M18.668,10.321l.666-.226s.138-.1.126.113v2.236s-.013.214.176.214h.226v.151H18.58V12.67h.251a.2.2,0,0,0,.138-.214V10.773a.389.389,0,0,0-.314-.339Z" transform="translate(-14.209 -8.233)" fill="#fff"/>
      <path id="Path_4200" data-name="Path 4200" d="M19.778,10.364v.113s.364.1.339.339v1.658a.173.173,0,0,1-.163.188H19.74v.151h1.269v-.151h-.226s-.188-.013-.188-.176v-1.8a1.519,1.519,0,0,1,.779-.289.49.49,0,0,1,.477.465v1.583s0,.2-.176.2h-.226V12.8h1.281V12.65h-.214s-.188.025-.2-.2V10.892s.038-.779-.59-.829a1.406,1.406,0,0,0-1.13.44V10.05A6.242,6.242,0,0,1,19.778,10.364Z" transform="translate(-13.912 -8.239)" fill="#fff"/>
      <path id="Path_4201" data-name="Path 4201" d="M22.847,12.218a.792.792,0,0,0,.615.339,1.354,1.354,0,0,0,.829-.414l.088.088c-.565.766-1.13.678-1.13.678-1.344-.025-1.105-1.633-1.105-1.633a1.272,1.272,0,0,1,1.231-1.206.971.971,0,0,1,.98.967c.013.126-.126.126-.126.126H22.6A1.448,1.448,0,0,0,22.847,12.218Zm-.226-1.243h1.043a.176.176,0,0,0,.176-.214.55.55,0,0,0-.553-.5A.721.721,0,0,0,22.621,10.974Z" transform="translate(-13.301 -8.234)" fill="#fff"/>
      <path id="Path_4202" data-name="Path 4202" d="M24.138,10.421v.088s.314.113.314.239v1.746s-.013.163-.151.151H24v.151h1.545v-.151h-.44s-.2.013-.176-.226V11.037a.472.472,0,0,1,.4-.465s.113-.038.264.1a.3.3,0,0,0,.452-.239.315.315,0,0,0-.176-.314.5.5,0,0,0-.54.1,1.664,1.664,0,0,0-.414.477v-.54s0-.151-.138-.05C24.779,10.094,24.176,10.4,24.138,10.421Z" transform="translate(-12.821 -8.233)" fill="#fff"/>
      <path id="Path_4203" data-name="Path 4203" d="M27.3,10.864h.138l-.038-.6a1.281,1.281,0,0,0-1.156-.1.8.8,0,0,0-.465.691.745.745,0,0,0,.414.678l.515.239s.44.188.389.528a.441.441,0,0,1-.49.389.758.758,0,0,1-.741-.716l-.126.025.075.691a1.593,1.593,0,0,0,.741.188s1.03.05,1.03-.854a.718.718,0,0,0-.528-.678l-.615-.289a.5.5,0,0,1-.251-.452s.038-.377.528-.352A.647.647,0,0,1,27.3,10.864Z" transform="translate(-12.376 -8.236)" fill="#fff"/>
      <path id="Path_4204" data-name="Path 4204" d="M32.125,10.033h.151l-.05-.867a3.028,3.028,0,0,0-2.562-.038,2.1,2.1,0,0,0-1.143,1.859A2.139,2.139,0,0,0,29.538,12.9a2.77,2.77,0,0,0,2.6,0l.126-.879-.126-.038a1.282,1.282,0,0,1-1.193,1.03,1.7,1.7,0,0,1-1.382-.754,2.175,2.175,0,0,1-.414-1.444,1.876,1.876,0,0,1,.791-1.52,1.606,1.606,0,0,1,.955-.251A1.191,1.191,0,0,1,32.125,10.033Z" transform="translate(-11.665 -8.548)" fill="#fff"/>
      <path id="Path_4205" data-name="Path 4205" d="M31.765,8.937v.088a.355.355,0,0,1,.327.364v3.454a.175.175,0,0,1-.163.176H31.69v.163h1.281v-.163h-.226s-.188.013-.188-.214V8.7s.013-.151-.1-.063C32.456,8.636,32.042,8.837,31.765,8.937Z" transform="translate(-10.852 -8.608)" fill="#fff"/>
      <path id="Path_4206" data-name="Path 4206" d="M32.713,10.189l.716-.038s.138-.05.113.126v1.671s-.063.628.515.628c0,0,.264.013.741-.377v-1.62s-.05-.138-.515-.226v-.1l.854-.075s.138-.075.138.088V12.45s-.038.138.138.126h.251V12.7s-.754.138-.879.188l-.013-.038V12.4s-.641.553-1.093.49a.647.647,0,0,1-.628-.7V10.553s-.013-.239-.352-.239v-.126Z" transform="translate(-10.594 -8.215)" fill="#fff"/>
      <path id="Path_4207" data-name="Path 4207" d="M35.419,13.207l-.126-.075a7.165,7.165,0,0,0,.1-.992V9.351a.339.339,0,0,0-.314-.314V8.911a3.661,3.661,0,0,0,.678-.276s.113-.1.113.1v2.135s.729-.728,1.444-.264a1.29,1.29,0,0,1,.565,1.093,1.57,1.57,0,0,1-1.432,1.6,1.632,1.632,0,0,1-.842-.214Zm.427-2.148v1.419s.038.628.615.641c0,0,.854.1.917-1.156,0,0-.013-1.055-.942-1.181C36.437,10.77,36.185,10.72,35.846,11.059Z" transform="translate(-9.984 -8.608)" fill="#fff"/>
      <path id="Path_4208" data-name="Path 4208" d="M15.1,13.28h1.017v.113h-.126a.163.163,0,0,0-.151.163v1.721a.135.135,0,0,0,.138.163h.138v.126H15.1V15.44h.138s.126,0,.138-.163V13.556s-.025-.151-.151-.138H15.1Z" transform="translate(-15.1 -7.412)" fill="#fff"/>
      <path id="Path_4209" data-name="Path 4209" d="M29.083,13.28H30.1v.113h-.126a.163.163,0,0,0-.151.163v1.721a.135.135,0,0,0,.138.163H30.1v.126H29.083V15.44h.138s.126,0,.138-.163V13.556s-.025-.151-.151-.138H29.07V13.28Z" transform="translate(-11.523 -7.412)" fill="#fff"/>
      <path id="Path_4210" data-name="Path 4210" d="M15.993,13.283h.678l1.444,1.6V13.647s0-.214-.188-.239h-.163V13.27h.892V13.4h-.113s-.2-.025-.226.276v1.671a1.1,1.1,0,0,0,.013.276h-.151L16.52,13.785v1.357s-.025.289.176.289h.188v.126h-.9V15.43h.126s.188,0,.214-.3V13.684a.31.31,0,0,0-.214-.251H15.98v-.151Z" transform="translate(-14.875 -7.414)" fill="#fff"/>
      <path id="Path_4211" data-name="Path 4211" d="M23.493,13.283h.678l1.444,1.6V13.647s0-.214-.188-.239h-.163V13.27h.892V13.4h-.113s-.2-.025-.226.276v1.671a1.1,1.1,0,0,0,.013.276h-.151L24.02,13.785v1.357s-.025.289.176.289h.188v.126h-.9V15.43h.126s.188,0,.214-.3V13.684a.31.31,0,0,0-.214-.251H23.48v-.151Z" transform="translate(-12.954 -7.414)" fill="#fff"/>
      <path id="Path_4212" data-name="Path 4212" d="M31.963,13.283h.678l1.444,1.6V13.647s0-.214-.188-.239h-.163V13.27h.892V13.4h-.113s-.2-.025-.226.276v1.671a1.1,1.1,0,0,0,.013.276h-.151L32.49,13.785v1.357s-.025.289.176.289h.188v.126h-.9V15.43h.126s.188,0,.214-.3V13.684a.31.31,0,0,0-.214-.251H31.95v-.151Z" transform="translate(-10.786 -7.414)" fill="#fff"/>
      <path id="Path_4213" data-name="Path 4213" d="M18.2,13.21a2.776,2.776,0,0,1-.063.578h.138s-.013-.314.239-.289h.565v1.7s.038.251-.138.289h-.2v.126h1.118v-.126H19.71s-.2,0-.176-.289V13.5h.528s.214-.038.226.314l.126-.05a4.674,4.674,0,0,1,.038-.553s-.075.025-.1,0a.146.146,0,0,1-.113.1H18.429a.133.133,0,0,1-.126-.1Z" transform="translate(-14.322 -7.43)" fill="#fff"/>
      <path id="Path_4214" data-name="Path 4214" d="M27.233,13.21a2.776,2.776,0,0,1-.063.578h.138s-.013-.314.239-.289h.565v1.7s.038.251-.138.289h-.2v.126h1.118v-.126H28.74s-.2,0-.176-.289V13.5h.528s.214-.038.226.314l.126-.05a4.674,4.674,0,0,1,.038-.553s-.075.025-.1,0a.146.146,0,0,1-.113.1H27.459a.133.133,0,0,1-.126-.1Z" transform="translate(-12.01 -7.43)" fill="#fff"/>
      <path id="Path_4215" data-name="Path 4215" d="M20.033,13.28H21.7a5.149,5.149,0,0,0,.025.515l-.138.038s.013-.4-.3-.377h-.515v.816h.389s.214.025.226-.276l.113-.013s-.025.628,0,.779l-.126.038s.013-.352-.226-.339h-.389v.728a.179.179,0,0,0,.2.214h.389a.437.437,0,0,0,.44-.389l.126.025s-.1.414-.113.54H20.02v-.126h.151s.138,0,.151-.176v-1.7s-.013-.163-.151-.163H20.02V13.28Z" transform="translate(-13.84 -7.412)" fill="#fff"/>
      <path id="Path_4216" data-name="Path 4216" d="M21.635,13.28h1.118s.729-.038.729.553a.6.6,0,0,1-.452.628l.578.842s.038.138.289.163v.113h-.641l-.666-1.055h-.2v.728a.2.2,0,0,0,.126.188H22.7v.126h-1.08V15.44h.138a.188.188,0,0,0,.151-.163V13.569s-.025-.163-.151-.163H21.61V13.28Zm.741.151v.955h.214A.417.417,0,0,0,23,13.908a.452.452,0,0,0-.339-.477Z" transform="translate(-13.433 -7.412)" fill="#fff"/>
      <path id="Path_4217" data-name="Path 4217" d="M37.25,13.34h.188s.126,0,.126.088a.092.092,0,0,1-.075.1l.1.138a.054.054,0,0,0,.05.025v.025h-.1l-.113-.176h-.038v.126a.025.025,0,0,0,.025.025h.025v.025h-.176v-.025h.025a.025.025,0,0,0,.025-.025V13.39a.025.025,0,0,0-.025-.025h-.025V13.34Zm.113.025v.151H37.4a.061.061,0,0,0,.063-.075.065.065,0,0,0-.063-.075Z" transform="translate(-9.429 -7.397)" fill="#fff"/>
      <path id="Path_4218" data-name="Path 4218" d="M25.56,15.606v-.113h.075a.285.285,0,0,0,.214-.2l.666-1.922.264-.126s.1-.075.126.05l.716,2.035a.251.251,0,0,0,.251.151v.113H26.9v-.126h.113s.151-.013.126-.126l-.188-.54h-.716l-.163.5s-.075.151.1.151h.151v.138H25.56Zm.741-1.017h.565l-.289-.867Z" transform="translate(-12.422 -7.427)" fill="#fff"/>
      <path id="Path_4219" data-name="Path 4219" d="M34.05,15.606v-.113h.075a.285.285,0,0,0,.214-.2L35,13.37l.264-.126s.1-.075.126.05l.716,2.035a.251.251,0,0,0,.251.151v.113h-.967v-.126h.113s.151-.013.126-.126l-.188-.54h-.716l-.163.5s-.075.151.1.151h.151v.138H34.05Zm.741-1.017h.565l-.289-.867Z" transform="translate(-10.248 -7.427)" fill="#fff"/>
      <path id="Path_4220" data-name="Path 4220" d="M31.193,15.652a1.206,1.206,0,1,1,1.243-1.206A1.223,1.223,0,0,1,31.193,15.652Zm-.766-1.306c.013,1.156.8,1.143.8,1.143.816-.038.7-1.08.7-1.08-.05-.98-.8-.992-.8-.992C30.364,13.479,30.427,14.345,30.427,14.345Z" transform="translate(-11.298 -7.422)" fill="#fff"/>
      <path id="Path_4221" data-name="Path 4221" d="M35.943,13.28h1.03v.113h-.126s-.188-.013-.176.151v1.671s-.038.163.163.188c0,0,.766.176.854-.4h.126l-.113.578H35.943v-.113h.113s.138,0,.176-.188v-1.7a.177.177,0,0,0-.151-.163H35.93V13.28Z" transform="translate(-9.767 -7.412)" fill="#fff"/>
      <g id="Group_3064" data-name="Group 3064" transform="translate(27.645 5.78)">
        <path id="Path_4222" data-name="Path 4222" d="M37.462,13.913a.351.351,0,0,1-.352-.352.352.352,0,0,1,.7,0A.351.351,0,0,1,37.462,13.913Zm0-.628a.276.276,0,1,0,.276.276A.279.279,0,0,0,37.462,13.285Z" transform="translate(-37.11 -13.21)" fill="#fff"/>
      </g>
    </g>
  </g>
</svg>
