<svg xmlns="http://www.w3.org/2000/svg" width="53.633" height="33.333" viewBox="0 0 53.633 33.333">
  <g id="master-card" transform="translate(-0.002 0)">
    <g id="Group_3056" data-name="Group 3056" transform="translate(0.667 0.667)">
      <g id="Group_3055" data-name="Group 3055">
        <g id="Group_3054" data-name="Group 3054">
          <g id="Group_3051" data-name="Group 3051">
            <g id="Group_3050" data-name="Group 3050">
              <rect id="Rectangle_1399" data-name="Rectangle 1399" width="52.3" height="32" rx="5.805" fill="#fff" stroke="#eaeaea" stroke-width="1.333"/>
            </g>
          </g>
          <g id="Group_3053" data-name="Group 3053" transform="translate(13.945 7.829)">
            <g id="Group_3052" data-name="Group 3052">
              <path id="Path_4191" data-name="Path 4191" d="M9.389,7.461a7.444,7.444,0,0,1,2.766-5.8,7.46,7.46,0,1,0,0,11.594,7.442,7.442,0,0,1-2.766-5.8Z" fill="#ea001b"/>
              <path id="Path_4192" data-name="Path 4192" d="M16.644,0A7.429,7.429,0,0,0,11.95,1.663a7.459,7.459,0,0,1,0,11.6A7.46,7.46,0,1,0,16.644,0Z" transform="translate(0.205)" fill="#f79f1a"/>
              <path id="Path_4193" data-name="Path 4193" d="M14.762,7.433A7.442,7.442,0,0,0,12,1.635a7.46,7.46,0,0,0,0,11.594,7.446,7.446,0,0,0,2.766-5.8Z" transform="translate(0.158 0.028)" fill="#ff5f01"/>
            </g>
          </g>
        </g>
      </g>
    </g>
  </g>
</svg>
