<svg xmlns="http://www.w3.org/2000/svg" width="54.002" height="33" viewBox="0 0 54.002 33">
  <g id="UATP" transform="translate(-0.188 -0.2)">
    <g id="Group_3072" data-name="Group 3072" transform="translate(0.689 0.7)">
      <g id="Group_3071" data-name="Group 3071">
        <g id="Group_3070" data-name="Group 3070">
          <g id="Group_3069" data-name="Group 3069">
            <g id="Group_3068" data-name="Group 3068">
              <g id="Group_3067" data-name="Group 3067">
                <path id="Path_4225" data-name="Path 4225" d="M6.645.7h41.1a5.955,5.955,0,0,1,5.945,6.085v19.83A5.955,5.955,0,0,1,47.744,32.7H6.645A5.955,5.955,0,0,1,.7,26.615V6.89A5.692,5.692,0,0,1,6.645.7Z" transform="translate(-0.689 -0.7)" fill="#fff" stroke="#eaeaea" stroke-width="1"/>
              </g>
            </g>
          </g>
        </g>
      </g>
    </g>
    <g id="Group_3074" data-name="Group 3074" transform="translate(4.615 10.018)">
      <g id="Group_3073" data-name="Group 3073" transform="translate(0 1.542)">
        <path id="Path_4226" data-name="Path 4226" d="M11.446,11.124H14.3V22.139c0,.134,0,.267-.267.267a15.552,15.552,0,0,1-5.579.411,4.024,4.024,0,0,1-1.223-.267A3.7,3.7,0,0,1,4.51,18.738V10.98H7.366v6.658A3.822,3.822,0,0,0,7.5,18.861,1.594,1.594,0,0,0,9,20.217a6.738,6.738,0,0,0,2.312-.134C11.446,17.248,11.446,14.114,11.446,11.124Z" transform="translate(-4.51 -10.944)"/>
        <path id="Path_4227" data-name="Path 4227" d="M42.846,19.283v3.4H39.99V11.536c0-.267,0-.411.267-.411a26.712,26.712,0,0,1,4.357-.134,5.815,5.815,0,0,1,1.767.411,3.693,3.693,0,0,1,2.312,3.4,4.648,4.648,0,0,1-.134,1.356,3.6,3.6,0,0,1-3.134,2.99,11.933,11.933,0,0,1-2.178.134Zm0-4.079v1.5c0,.134,0,.267.134.267H44.2a1.538,1.538,0,0,0,1.5-1.634A1.435,1.435,0,0,0,44.347,13.7a4.615,4.615,0,0,0-1.356,0c-.134,0-.134.134-.134.267C42.846,14.248,42.846,14.659,42.846,15.2Z" transform="translate(-3.668 -10.945)"/>
        <path id="Path_4228" data-name="Path 4228" d="M27.8,22.5c-.678-1.634-1.223-3.267-1.9-4.9-.956.411-1.767.678-2.589,1.089.411,1.223.956,2.589,1.356,3.812H27.8" transform="translate(-4.056 -10.762)"/>
        <path id="Path_4229" data-name="Path 4229" d="M23.525,11.257a.287.287,0,0,0-.267-.267H20.124c-.134,0-.267,0-.267.267A17.171,17.171,0,0,1,18.9,13.7c-.812,2.045-1.634,3.946-2.312,5.99a22.044,22.044,0,0,0-.956,2.723c0,.134-.134.267-.134.411h3.134c.545-1.5,1.223-3.267,1.767-4.757.411-1.223.956-2.445,1.356-3.678,0-.134,0-.134.134-.267.411,1.089.678,2.045,1.089,2.99L25.3,15.83S23.926,12.48,23.525,11.257Z" transform="translate(-4.25 -10.944)"/>
      </g>
      <path id="Path_4230" data-name="Path 4230" d="M14.57,20.146s8.025.134,17.139-6.124c0,0,6.535-4.9,14.693-3.678v-.134s-7.48-2.178-13.882.812l-4.357,2.589s-7.079,5.446-13.6,6.257l.01.277Z" transform="translate(-4.367 -9.444)" fill="#4bb848"/>
      <path id="Path_4231" data-name="Path 4231" d="M27.81,13.569V10.98H37.88v2.445H34.345v9.114H31.488V13.425" transform="translate(-3.96 -9.402)"/>
    </g>
    <g id="Group_3077" data-name="Group 3077" transform="translate(47.709 9.628)">
      <g id="Group_3075" data-name="Group 3075" transform="translate(0.493 0.38)">
        <path id="Path_4232" data-name="Path 4232" d="M47.06,10.484V9.57h.39a1.009,1.009,0,0,1,.216.021.18.18,0,0,1,.1.092.236.236,0,0,1,.041.144.259.259,0,0,1-.062.175.31.31,0,0,1-.185.082.4.4,0,0,1,.1.082.784.784,0,0,1,.1.154l.113.175h-.226l-.134-.2a1.279,1.279,0,0,0-.1-.134c-.021-.021-.041-.031-.051-.041a.228.228,0,0,0-.092-.01h-.041v.38H47.06Zm.185-.534h.134a.553.553,0,0,0,.164-.01.1.1,0,0,0,.051-.041.136.136,0,0,0,0-.144.166.166,0,0,0-.072-.041h-.277Z" transform="translate(-47.06 -9.57)"/>
      </g>
      <g id="Group_3076" data-name="Group 3076">
        <path id="Path_4233" data-name="Path 4233" d="M47.423,10.875a.846.846,0,0,1-.843-.843.838.838,0,0,1,.843-.832.846.846,0,0,1,.843.843A.838.838,0,0,1,47.423,10.875Zm0-1.552a.709.709,0,1,0,.709.709A.71.71,0,0,0,47.423,9.323Z" transform="translate(-46.58 -9.2)"/>
      </g>
    </g>
  </g>
</svg>
