<svg xmlns="http://www.w3.org/2000/svg" xmlns:xlink="http://www.w3.org/1999/xlink" width="52" height="33" viewBox="0 0 52 33">
  <defs>
    <clipPath id="clip-path">
      <path id="Path_4190" data-name="Path 4190" d="M18.385,10.4l-3.127,7.861-1.3-6.685A1.4,1.4,0,0,0,12.521,10.4H7.58V10.8a8.2,8.2,0,0,1,2.86.918,1.3,1.3,0,0,1,.779,1.052l2.348,9.172h3.127l4.818-11.524C21.512,10.4,18.385,10.4,18.385,10.4Zm4.429,0L20.343,21.928h2.993L25.807,10.4Zm17.048,3.147.912,4.323H38.3ZM39.35,10.4a1.715,1.715,0,0,0-1.3.784l-4.429,10.74h3.127l.646-1.7h3.773l.39,1.7h2.737L41.954,10.4ZM26.587,14.067c0,1.7,1.435,2.62,2.6,3.147s1.558.918,1.558,1.444c0,.784-.912,1.176-1.825,1.176a5.482,5.482,0,0,1-2.993-.784l-.523,2.486a9.5,9.5,0,0,0,3.25.65c3.127,0,5.208-1.568,5.208-3.931,0-3.013-4.162-3.27-4.162-4.581,0-.392.39-.918,1.3-.918a5.525,5.525,0,0,1,2.86.526l.523-2.486a7.872,7.872,0,0,0-2.737-.526c-2.983-.124-5.064,1.444-5.064,3.8" transform="translate(-7.58 -10.263)"/>
    </clipPath>
    <linearGradient id="linear-gradient" x1="-41.754" y1="5.619" x2="-41.742" y2="5.619" gradientUnits="objectBoundingBox">
      <stop offset="0" stop-color="#231f5c"/>
      <stop offset="0.223" stop-color="#212261"/>
      <stop offset="0.477" stop-color="#1b2b6e"/>
      <stop offset="0.744" stop-color="#103b85"/>
      <stop offset="1" stop-color="#034ea2"/>
    </linearGradient>
  </defs>
  <g id="VISA" transform="translate(-0.221 -0.22)">
    <g id="Group_3046" data-name="Group 3046" transform="translate(0.72 0.72)">
      <g id="Group_3045" data-name="Group 3045">
        <g id="Group_3044" data-name="Group 3044">
          <g id="Group_3043" data-name="Group 3043">
            <g id="Group_3042" data-name="Group 3042">
              <g id="Group_3041" data-name="Group 3041">
                <path id="Path_4189" data-name="Path 4189" d="M6.461.72H45.979a5.888,5.888,0,0,1,5.741,6.1v19.81a5.888,5.888,0,0,1-5.741,6.1H6.461a5.888,5.888,0,0,1-5.741-6.1V6.815A5.818,5.818,0,0,1,6.461.72Z" transform="translate(-0.72 -0.72)" fill="#fff" stroke="#eaeaea" stroke-width="1"/>
              </g>
            </g>
          </g>
        </g>
      </g>
    </g>
    <g id="Group_3049" data-name="Group 3049" transform="translate(7.797 10.75)">
      <g id="Group_3048" data-name="Group 3048">
        <g id="Group_3047" data-name="Group 3047" clip-path="url(#clip-path)">
          <rect id="Rectangle_1398" data-name="Rectangle 1398" width="36.711" height="11.926" transform="translate(0 -0.117)" fill="url(#linear-gradient)"/>
        </g>
      </g>
    </g>
  </g>
</svg>
